# xmcd
#
# Track frame offsets: 
#        150
#        3240
#        18932
#        31287
#        45342
#
# Disc length: 833 seconds
#
# Revision: 0
# Processed by: cddbd v1.5.2PL0 Copyright (c) Steve Scherf et al.
# Submitted via: ExactAudioCopy v1.0b1
#
DISCID=28033f05
DTITLE=Dorval - Les collines rouges
DYEAR=2010
DGENRE=Country
TTITLE0=L'heure bleue- introduction
TTITLE1=L'heure bleue
TTITLE2=L ebar des fontaines
TTITLE3=le parfum des immortelles
TTITLE4=Les collines rouges
EXTD=
EXTT0=
EXTT1=
EXTT2=
EXTT3=
EXTT4=
PLAYORDER=
